# xmcd
#
# Track frame offsets:
#  182
#  14805
#  30512
#  46152
#  62845
#  79717
#  95582
#  119497
#  134902
#  152012
#  168957
#  183977
#  201485
#  217475
#
# Disc length: 3121 seconds
#
# Revision: 0
# Processed by: cddbd v1.5.1PL2 Copyright (c) Steve Scherf et al.
# Submitted via: Collectorz.com_Music_Collector 6.9
#
DISCID=d20c2f0e
DTITLE=Sinitta - Wicked
DYEAR=1989
DGENRE=R&B/Soul
TTITLE0=Right Back Where We Started From
TTITLE1=I Don't Believe in Miracles
TTITLE2=I Just Wanna Spend Some Time with You
TTITLE3=Hitchin' a Ride
TTITLE4=Lay Me Down Easy
TTITLE5=You Keep Me Hanning on
TTITLE6=Right Back Where We Started From (12" Mix)
TTITLE7=Love on a Mountain Top
TTITLE8=Love Love Love
TTITLE9=Where Do Nice Girls Go
TTITLE10=Body Shopping
TTITLE11=Don't Tell Me Not To Cry
TTITLE12=It Would Be So Easy
TTITLE13=I Just Can't Help It
EXTD=
EXTT0=
EXTT1=
EXTT2=
EXTT3=
EXTT4=
EXTT5=
EXTT6=
EXTT7=
EXTT8=
EXTT9=
EXTT10=
EXTT11=
EXTT12=
EXTT13=
PLAYORDER=
